<svg width="512" height="204" xmlns="http://www.w3.org/2000/svg" xmlns:xlink="http://www.w3.org/1999/xlink" overflow="hidden"><defs><clipPath id="clip0">
<path d="M31 126 543 126 543 330 31 330Z" fill-rule="evenodd" clip-rule="evenodd"/></clipPath></defs><g clip-path="url(#clip0)" transform="translate(-31 -126)"><text font-family="Brush Script MT,Brush Script MT_MSFontService,sans-serif" font-style="italic" font-weight="400" font-size="96" transform="translate(88.8236 239)">Glædelig Jul<tspan fill="#FF0000" x="-0.000213623" y="0">Glædelig Jul</tspan></text></g></svg>

<svg width="288" height="67" viewBox="0 0 288 67" fill="none" xmlns="http://www.w3.org/2000/svg">
<path fill-rule="evenodd" clip-rule="evenodd" d="M33.5601 23.937V48.0466L33.7665 48.8216L33.5601 49.0161V49.5401H33.0036C29.7288 52.5829 25.5741 54.0459 20.6329 54.0459C14.5376 54.0459 9.5195 51.7856 5.69997 47.1557L5.6977 47.153L5.69543 47.1502C1.86178 42.4527 0 36.0816 0 28.2198C0 20.7125 1.85219 14.4617 5.61742 9.59838C9.41358 4.69669 14.2045 2.25289 19.9017 2.25289C24.5092 2.25289 28.4241 3.36708 31.5774 5.69476L32.1539 6.12035V15.8053L30.3377 14.3082C27.4732 11.947 24.1399 10.7482 20.2954 10.7482C16.3415 10.7482 13.2093 12.3527 10.7917 15.5067L10.7889 15.5103L10.7862 15.5139C8.37766 18.6135 7.12449 22.795 7.12449 28.2198C7.12449 33.8011 8.3661 38.0211 10.7273 41.0631C13.0824 44.051 16.3708 45.621 20.7454 45.621C22.8696 45.621 24.8376 45.153 26.6606 44.2264V31.869H18.3362V23.937H33.5601ZM27.8324 30.4023V45.1869C25.6575 46.4541 23.2952 47.0877 20.7454 47.0877C16.1332 47.0877 12.5147 45.4215 9.88991 42.0891C7.2651 38.7098 5.95269 34.0867 5.95269 28.2198C5.95269 22.4937 7.28385 17.9175 9.94616 14.4912C12.6085 11.018 16.0582 9.28144 20.2954 9.28144C23.8406 9.28144 27.0123 10.2526 29.8103 12.195C30.2085 12.4714 30.5991 12.7675 30.9821 13.0832V6.95814C28.0573 4.79912 24.3639 3.71961 19.9017 3.71961C14.5021 3.71961 10.0212 6.01944 6.45891 10.6191C2.93416 15.1718 1.17179 21.0387 1.17179 28.2198C1.17179 35.7764 2.95291 41.7371 6.51515 46.1021C10.0774 50.4201 14.7833 52.5792 20.6329 52.5792C25.403 52.5792 29.3027 51.1652 32.332 48.3373C32.3508 48.3198 32.3696 48.3022 32.3883 48.2846L32.332 48.0734H32.3883V25.4037H19.508V30.4023H27.8324ZM39.3115 53.4827V0.774432H46.0985V53.4827H39.3115ZM85.8375 24.3064L85.8317 24.2987C84.8082 22.9421 83.4454 22.2238 81.6215 22.2238C79.8375 22.2238 78.3121 23.004 76.9892 24.6166C75.9472 25.9239 75.1846 27.818 74.7754 30.414H87.5357C87.4907 27.6124 86.8787 25.6468 85.8435 24.314L85.8375 24.3064ZM88.7077 30.414C88.708 30.4335 88.7082 30.4531 88.7085 30.4727V31.8807H73.4096C73.4562 31.3748 73.514 30.8859 73.5828 30.414C74.0121 27.4714 74.873 25.1912 76.1656 23.5732C77.703 21.6958 79.5217 20.7571 81.6215 20.7571C83.7213 20.7571 85.4087 21.6019 86.6836 23.2916C87.9877 24.9706 88.6624 27.3447 88.7077 30.414ZM93.7892 37.994H74.858C75.3045 40.3802 76.1895 42.1799 77.4691 43.4874C79.0686 45.1218 81.0647 45.973 83.5339 45.973C86.4888 45.973 88.7471 45.1928 90.4078 43.7663L92.2426 42.1902V51.0574L91.6307 51.474C89.2801 53.0741 86.451 53.8347 83.1964 53.8347C80.5843 53.8347 78.1354 53.1285 75.8666 51.7085C74.2183 50.677 72.8267 49.3631 71.7092 47.7626C70.8937 49.2648 69.8023 50.5351 68.4566 51.5745C66.4707 53.1082 64.0899 53.8347 61.373 53.8347C58.42 53.8347 55.9142 52.8413 53.9685 50.7306L53.9629 50.7246L53.9574 50.7185C51.986 48.5251 51.0331 45.569 51.0331 42.0187C51.0331 38.1141 52.2385 34.9603 54.6624 32.739C57.029 30.5702 60.1705 29.5692 63.9603 29.5692H67.8506V29.2758C67.8506 26.6499 67.3759 24.9543 66.6328 23.9208L66.6264 23.9119L66.6201 23.9029C65.9294 22.9102 64.6341 22.2238 62.3854 22.2238C59.6032 22.2238 57.1288 23.1332 54.9289 24.9403L53.1142 26.4309V17.4771L53.668 17.0468C56.0768 15.1754 59.0635 14.2918 62.5541 14.2918C65.0992 14.2918 67.2922 14.8457 69.0632 16.0549C70.2838 16.8882 71.2721 18.0118 72.0227 19.4062C74.416 16.0803 77.6722 14.4326 81.6777 14.4326C85.6147 14.4326 88.7867 16.0063 91.0058 19.3118C93.2388 22.5348 94.2675 27.0574 94.2675 32.6552C94.2675 34.0572 94.1674 35.4373 93.9666 36.7944L93.7892 37.994ZM72.6406 20.7514C74.816 17.5167 77.8284 15.8993 81.6777 15.8993C85.3525 15.8993 88.1648 17.3543 90.1146 20.2643C92.102 23.1273 93.0957 27.2576 93.0957 32.6552C93.0957 33.9694 93.0019 35.2601 92.8144 36.5273H73.4658C73.5143 37.0332 73.5783 37.5221 73.6578 37.994C74.1313 40.8062 75.1548 43.016 76.7281 44.6236C78.5655 46.5011 80.834 47.4398 83.5339 47.4398C86.0467 47.4398 88.1684 46.9043 89.899 45.8335C90.3119 45.578 90.7025 45.2921 91.0708 44.9757V50.1855C88.9335 51.6405 86.3087 52.368 83.1964 52.368C80.7591 52.368 78.4905 51.7109 76.3906 50.3967C74.7381 49.3624 73.3874 48.0375 72.3387 46.4218C72.0548 45.9845 71.7931 45.5259 71.5535 45.0461C71.3809 45.5691 71.1775 46.0687 70.9433 46.5449C70.2107 48.0344 69.1767 49.2949 67.8412 50.3263C66.0789 51.6874 63.9228 52.368 61.373 52.368C58.6357 52.368 56.4233 51.4527 54.7359 49.6222C53.0486 47.7448 52.2049 45.2103 52.2049 42.0187C52.2049 38.5455 53.2548 35.8468 55.3546 33.9224C57.4545 31.9981 60.323 31.0359 63.9603 31.0359H69.0224V29.2758C69.0224 26.4597 68.5162 24.3476 67.5038 22.9396C66.4913 21.4846 64.7852 20.7571 62.3854 20.7571C59.8643 20.7571 57.5551 21.4533 55.4578 22.8456C55.0595 23.11 54.6689 23.3994 54.286 23.714V18.293C56.4608 16.6033 59.2169 15.7585 62.5541 15.7585C66.7829 15.7585 69.6791 17.3727 71.2427 20.6012C71.4676 21.0657 71.6649 21.5635 71.8347 22.0947C72.0892 21.6196 72.3578 21.1719 72.6406 20.7514ZM64.804 35.6825C59.4793 35.6825 56.817 37.7242 56.817 41.8075C56.817 43.5441 57.2858 44.9287 58.2232 45.9613C59.1981 46.9939 60.5855 47.5102 62.3854 47.5102C64.2603 47.5102 65.8351 46.7827 67.11 45.3277C68.385 43.8727 69.0224 41.9483 69.0224 39.5546V35.6825H64.804ZM67.8506 37.1492H64.804C62.2232 37.1492 60.4846 37.6526 59.4259 38.4644C58.461 39.2044 57.9888 40.2484 57.9888 41.8075C57.9888 43.1689 58.3393 44.1304 58.9886 44.8506C59.6801 45.5775 60.7573 46.0434 62.3854 46.0434C63.9957 46.0434 65.281 45.4302 66.3205 44.2438C67.324 43.0986 67.8506 41.5856 67.8506 39.5546V37.1492ZM115.38 43.2639L115.385 43.2578C116.733 41.4941 117.535 38.4977 117.535 33.9224C117.535 29.6106 116.725 26.7572 115.347 25.0328C113.837 23.1429 112.266 22.2942 110.607 22.2942C108.615 22.2942 106.972 23.2754 105.607 25.3481C104.305 27.3364 103.567 30.3336 103.567 34.556C103.567 38.165 104.268 40.9409 105.567 43.0144C106.861 45.0793 108.424 46.0434 110.326 46.0434C112.32 46.0434 113.981 45.1376 115.376 43.27L115.38 43.2639ZM104.701 24.418C106.276 22.0243 108.245 20.8275 110.607 20.8275C112.632 20.8275 114.488 21.8835 116.175 23.9956C117.863 26.1077 118.706 29.4166 118.706 33.9224C118.706 38.6629 117.882 42.1126 116.232 44.2716C114.619 46.4307 112.651 47.5102 110.326 47.5102C108.038 47.5102 106.145 46.3133 104.645 43.9196C103.145 41.5259 102.395 38.4047 102.395 34.556C102.395 30.1441 103.164 26.7648 104.701 24.418ZM117.535 0.774432H124.322V53.4827H117.535V50.6878C115.503 52.9215 112.951 54.0459 109.932 54.0459C105.81 54.0459 102.475 52.1018 100.062 48.1962L100.059 48.1913L100.056 48.1864C97.7431 44.377 96.6112 39.7826 96.6112 34.4856C96.6112 28.6473 97.8099 23.7821 100.312 20.0316C102.822 16.2225 106.097 14.2918 110.045 14.2918C113.002 14.2918 115.513 15.4553 117.535 17.7377V0.774432ZM118.706 21.7427C118.342 21.0371 117.951 20.3938 117.535 19.813C115.597 17.11 113.1 15.7585 110.045 15.7585C106.445 15.7585 103.501 17.4951 101.214 20.9683C98.9266 24.3946 97.783 28.9003 97.783 34.4856C97.783 39.5077 98.8517 43.7788 100.989 47.299C103.164 50.8191 106.145 52.5792 109.932 52.5792C113.073 52.5792 115.608 51.2653 117.535 48.6376C117.954 48.0659 118.345 47.4319 118.706 46.7357V52.0159H123.15V2.24116H118.706V21.7427ZM146.77 24.4177L146.765 24.4104C145.752 22.9934 144.332 22.2238 142.351 22.2238C140.531 22.2238 139.015 23.0249 137.734 24.6679C136.687 26.0115 135.949 27.8925 135.589 30.414H148.379C148.371 27.7576 147.797 25.8166 146.776 24.4248L146.77 24.4177ZM134.252 31.8807C134.289 31.3753 134.339 30.8864 134.401 30.414C134.776 27.5521 135.608 25.2953 136.895 23.6436C138.395 21.7193 140.214 20.7571 142.351 20.7571C144.601 20.7571 146.364 21.6489 147.638 23.4324C148.905 25.1575 149.542 27.4847 149.551 30.414C149.551 30.4335 149.551 30.4531 149.551 30.4727V31.8807H134.252ZM153.366 42.1902V51.0717L152.739 51.4839C150.319 53.0757 147.421 53.8347 144.095 53.8347C139.526 53.8347 135.726 52.082 132.81 48.4842L132.805 48.4769L132.799 48.4695C129.922 44.8178 128.524 40.0364 128.524 34.2744C128.524 28.3393 129.762 23.4709 132.368 19.8463C134.966 16.2343 138.326 14.4326 142.351 14.4326C146.189 14.4326 149.352 15.9906 151.708 19.202C154.067 22.4189 155.166 26.8809 155.166 32.3736C155.166 33.9508 155.068 35.426 154.865 36.7944L154.688 37.994H135.642C136.085 40.3881 136.956 42.1906 138.208 43.4969C139.749 45.1043 141.824 45.973 144.545 45.973C147.582 45.973 149.875 45.1893 151.531 43.7663L153.366 42.1902ZM134.443 37.994C134.364 37.5221 134.3 37.0332 134.252 36.5273H153.713C153.9 35.2601 153.994 33.8755 153.994 32.3736C153.994 27.1168 152.944 23.0569 150.844 20.1939C148.745 17.3308 145.914 15.8993 142.351 15.8993C138.639 15.8993 135.602 17.542 133.239 20.8275C130.877 24.113 129.696 28.5953 129.696 34.2744C129.696 39.7189 131.008 44.1074 133.633 47.4398C136.295 50.7252 139.783 52.368 144.095 52.368C147.282 52.368 149.982 51.6405 152.194 50.1855V44.9757C151.827 45.291 151.437 45.5761 151.023 45.8309C149.28 46.9035 147.12 47.4398 144.545 47.4398C141.62 47.4398 139.258 46.5011 137.458 44.6236C135.917 43.016 134.912 40.8062 134.443 37.994ZM159.823 53.4827V0.774432H166.61V53.4827H159.823ZM172.951 53.4827V14.855H179.738V53.4827H172.951ZM173.406 8.77032L173.378 8.73335C172.635 7.73699 172.276 6.50238 172.276 5.12767C172.276 3.75296 172.635 2.51836 173.378 1.522L173.392 1.50351L173.406 1.48564C174.197 0.495359 175.193 0 176.316 0C177.439 0 178.434 0.495359 179.226 1.48564C180.017 2.47592 180.413 3.72221 180.413 5.12767C180.413 6.53314 180.017 7.77943 179.226 8.76971L179.211 8.78758L179.197 8.80483C178.401 9.73477 177.414 10.1849 176.316 10.1849C175.218 10.1849 174.231 9.73477 173.435 8.80483L173.406 8.77032ZM193.086 25.3593L193.083 25.3648C191.849 27.4376 191.178 30.2463 191.178 33.9224C191.178 37.6792 191.917 40.3168 193.221 42.0684C194.609 43.8859 196.095 44.7058 197.712 44.7058C199.437 44.7058 200.965 43.899 202.339 42.1785C203.659 40.5264 204.414 37.9793 204.414 34.2744C204.414 29.8883 203.669 26.9255 202.397 25.1006C201.044 23.1591 199.569 22.2942 197.937 22.2942C195.869 22.2942 194.291 23.2953 193.09 25.3538L193.086 25.3593ZM204.414 14.855H211.201V49.1294C211.201 54.8365 209.939 59.3755 207.221 62.4619C204.571 65.5178 201.179 67 197.149 67C193.572 67 190.447 66.246 187.814 64.6747L187.147 64.2763V55.2468L188.905 56.5192C191.099 58.107 193.703 58.9271 196.756 58.9271C199.281 58.9271 201.123 58.0885 202.427 56.5734C203.651 55.1504 204.389 52.8145 204.414 49.2483C202.507 51.4483 200.089 52.5674 197.206 52.5674C193.618 52.5674 190.523 50.8967 187.983 47.6155L187.98 47.6112L187.977 47.6069C185.427 44.2581 184.222 39.6775 184.222 34.0632C184.222 28.5064 185.345 23.8026 187.676 20.0656C190.034 16.2862 193.167 14.3622 196.981 14.3622C199.105 14.3622 201.012 14.946 202.656 16.17C203.291 16.6427 203.877 17.2035 204.414 17.8481V14.855ZM205.586 22.2356C205.234 21.4159 204.843 20.6748 204.414 20.0125C202.61 17.2234 200.132 15.8289 196.981 15.8289C193.531 15.8289 190.737 17.542 188.6 20.9683C186.463 24.3946 185.394 28.7595 185.394 34.0632C185.394 39.4138 186.538 43.5911 188.825 46.5949C191.15 49.5988 193.943 51.1007 197.206 51.1007C200.21 51.1007 202.613 49.7783 204.414 47.1336C204.838 46.511 205.229 45.8152 205.586 45.0461V49.059C205.586 52.9546 204.799 55.8177 203.224 57.6482C201.649 59.4786 199.493 60.3939 196.756 60.3939C194.042 60.3939 191.62 59.7789 189.491 58.549C189.09 58.3175 188.699 58.0641 188.319 57.789V63.3508C190.756 64.8058 193.7 65.5333 197.149 65.5333C200.937 65.5333 204.03 64.1487 206.43 61.3795C208.83 58.6573 210.03 54.5739 210.03 49.1294V16.3217H205.586V22.2356ZM228.036 51.3237V42.2729L229.846 43.7459C231.173 44.8252 232.528 45.3394 233.932 45.3394C235.366 45.3394 236.23 44.8691 236.751 44.1791C237.284 43.4737 237.654 42.2818 237.654 40.3291V3.09772H244.554V39.8363C244.554 44.0889 243.785 47.5522 242.042 49.9567C240.279 52.3882 237.706 53.4827 234.551 53.4827C232.299 53.4827 230.309 52.9286 228.632 51.7446L228.036 51.3237ZM230.38 45.7959C231.522 46.4694 232.707 46.8061 233.932 46.8061C237.195 46.8061 238.826 44.6471 238.826 40.3291V4.56445H243.382V39.8363C243.382 47.956 240.438 52.0159 234.551 52.0159C232.451 52.0159 230.67 51.4996 229.208 50.4671V44.9757C229.593 45.2894 229.984 45.5628 230.38 45.7959ZM268.33 14.855H275.117V53.4827H268.33V50.5431C267.85 51.1137 267.32 51.6159 266.738 52.0465C265.022 53.3164 262.941 53.9051 260.559 53.9051C257.504 53.9051 254.951 52.773 253.037 50.3778L253.028 50.366L253.019 50.3539C251.157 47.9148 250.276 44.7078 250.276 40.8923V14.855H257.063V39.4842C257.063 41.8267 257.537 43.3786 258.309 44.3793C259.096 45.4002 260.193 45.973 261.74 45.973C263.794 45.973 265.326 45.0974 266.468 43.398L266.473 43.3907L266.478 43.3834C267.671 41.6542 268.33 39.2367 268.33 35.9641V14.855ZM268.33 48.3586C268.789 47.6144 269.18 46.7683 269.502 45.8205V52.0159H273.946V16.3217H269.502V35.9641C269.502 39.4842 268.79 42.2769 267.365 44.342C265.978 46.4072 264.103 47.4398 261.74 47.4398C259.94 47.4398 258.516 46.7592 257.466 45.3981C256.416 44.0369 255.891 42.0657 255.891 39.4842V16.3217H251.447V40.8923C251.447 44.4124 252.253 47.2285 253.866 49.3406C255.516 51.4058 257.747 52.4384 260.559 52.4384C264.063 52.4384 266.653 51.0784 268.33 48.3586ZM281.213 53.4827V0.774432H288V53.4827H281.213ZM40.4833 52.0159H44.9267V2.24116H40.4833V52.0159ZM160.995 52.0159H165.438V2.24116H160.995V52.0159ZM174.122 52.0159H178.566V16.3217H174.122V52.0159ZM173.447 5.12767C173.447 6.16025 173.71 7.02855 174.235 7.73258C174.797 8.38967 175.491 8.71822 176.316 8.71822C177.141 8.71822 177.835 8.38967 178.397 7.73258C178.959 7.02855 179.241 6.16025 179.241 5.12767C179.241 4.0951 178.959 3.2268 178.397 2.52277C177.835 1.81874 177.141 1.46672 176.316 1.46672C175.491 1.46672 174.797 1.81874 174.235 2.52277C173.71 3.2268 173.447 4.0951 173.447 5.12767ZM203.168 43.2156C201.593 45.1869 199.774 46.1725 197.712 46.1725C195.724 46.1725 193.943 45.1399 192.368 43.0748C190.794 40.9627 190.006 37.9119 190.006 33.9224C190.006 30.0268 190.719 26.8821 192.143 24.4884C193.568 22.0478 195.499 20.8275 197.937 20.8275C199.962 20.8275 201.743 21.9305 203.28 24.1364C204.818 26.3424 205.586 29.7217 205.586 34.2744C205.586 38.217 204.78 41.1974 203.168 43.2156ZM282.385 52.0159H286.828V2.24116H282.385V52.0159Z" fill="white"/>
</svg>
